<?xml version="1.0" standalone="no"?>
<!DOCTYPE svg PUBLIC "-//W3C//DTD SVG 20010904//EN"
 "http://www.w3.org/TR/2001/REC-SVG-20010904/DTD/svg10.dtd">
<svg version="1.0" xmlns="http://www.w3.org/2000/svg"
 width="700.000000pt" height="700.000000pt" viewBox="0 0 700.000000 700.000000"
 preserveAspectRatio="xMidYMid meet">
<metadata>
Created by potrace 1.14, written by Peter Selinger 2001-2017
</metadata>
<g transform="translate(0.000000,700.000000) scale(0.100000,-0.100000)"
fill="#000000" stroke="none">
<path d="M345 6788 c-48 -17 -93 -56 -118 -101 -22 -41 -22 -50 -25 -447 -2
-283 0 -417 8 -446 16 -55 64 -112 114 -135 40 -18 129 -19 2496 -19 2353 0
2457 1 2495 19 51 23 101 79 114 128 16 57 15 814 -1 867 -16 53 -81 118 -134
134 -55 16 -4902 16 -4949 0z"/>
<path d="M5740 6778 c-35 -18 -51 -35 -73 -77 l-28 -54 3 -436 c3 -488 3 -483
76 -539 l35 -27 446 -3 c245 -1 456 0 469 3 12 3 40 22 62 41 69 63 71 81 68
556 -3 401 -4 414 -25 453 -25 48 -58 80 -96 94 -19 7 -179 11 -461 11 -428 0
-432 0 -476 -22z"/>
<path d="M324 5421 c-50 -23 -98 -80 -114 -135 -8 -29 -10 -163 -8 -446 l3
-405 25 -45 c28 -49 73 -84 129 -100 49 -14 1613 -14 1662 0 56 16 101 51 129
100 l25 45 3 395 c4 436 0 473 -50 534 -66 80 -10 76 -938 76 -781 0 -827 -1
-866 -19z"/>
<path d="M2515 5428 c-49 -17 -92 -55 -114 -101 -20 -42 -21 -57 -21 -466 0
-398 1 -424 19 -460 26 -50 81 -97 128 -110 52 -15 4063 -15 4114 -1 56 16
101 51 129 100 l25 45 3 405 c2 283 0 417 -8 446 -16 55 -64 112 -114 135 -39
18 -117 19 -2086 18 -1399 0 -2054 -4 -2075 -11z"/>
<path d="M319 4060 c-48 -25 -96 -81 -108 -127 -15 -52 -15 -805 0 -857 14
-50 82 -123 128 -137 21 -6 99 -9 192 -7 151 3 157 4 196 31 22 15 50 46 64
70 l24 42 3 407 c2 273 -1 421 -8 448 -6 23 -27 58 -46 80 -58 63 -82 70 -256
70 -131 -1 -158 -4 -189 -20z"/>
<path d="M1135 4063 c-44 -23 -74 -53 -96 -95 -18 -35 -19 -64 -19 -465 0
-424 1 -428 23 -467 12 -22 39 -53 60 -70 l39 -31 2754 -3 c2736 -2 2755 -2
2794 18 49 25 85 72 100 130 7 31 10 174 8 450 -3 399 -3 406 -26 447 -12 24
-41 55 -64 70 l-42 28 -2750 2 c-2494 2 -2754 1 -2781 -14z"/>
<path d="M490 2721 c-201 -7 -211 -10 -257 -88 l-28 -48 -3 -405 c-2 -274 0
-422 8 -456 12 -58 62 -124 107 -143 21 -8 356 -11 1294 -9 l1266 3 35 27 c73
56 73 52 76 533 3 484 3 485 -69 549 l-39 36 -718 0 c-395 0 -894 2 -1108 4
-214 2 -468 1 -564 -3z"/>
<path d="M3279 2697 c-19 -12 -45 -43 -59 -67 l-25 -45 -3 -405 c-4 -449 0
-489 50 -546 61 -69 -28 -64 1210 -64 1275 0 1165 -8 1223 85 l30 48 3 421 c3
448 1 473 -44 534 -51 66 33 62 -1217 62 l-1134 0 -34 -23z"/>
<path d="M6003 2695 c-30 -18 -49 -41 -68 -79 l-26 -53 3 -429 3 -429 23 -38
c13 -20 40 -50 60 -65 l35 -27 311 -3 c307 -2 311 -2 351 21 44 25 80 72 95
126 6 21 10 196 10 427 0 436 -3 465 -62 521 -18 17 -43 36 -55 42 -15 7 -122
11 -330 11 l-308 0 -42 -25z"/>
<path d="M315 1356 c-41 -18 -92 -77 -104 -123 -15 -51 -15 -835 0 -886 13
-47 63 -106 106 -123 27 -12 352 -14 1887 -14 1289 0 1863 3 1883 11 38 14 71
46 94 91 18 35 19 64 19 478 0 414 -1 443 -19 478 -23 45 -56 77 -94 91 -46
18 -3733 14 -3772 -3z"/>
<path d="M4540 1349 c-44 -18 -90 -59 -113 -102 -22 -42 -22 -46 -22 -468 l0
-426 30 -49 c23 -37 44 -56 84 -76 l55 -28 1019 0 c778 0 1029 3 1061 12 53
16 118 81 134 134 16 53 17 810 1 867 -13 49 -63 105 -114 128 -38 18 -95 19
-1075 18 -656 0 -1044 -4 -1060 -10z"/>
</g>
</svg>
