<?xml version="1.0" standalone="no"?>
<!DOCTYPE svg PUBLIC "-//W3C//DTD SVG 20010904//EN"
 "http://www.w3.org/TR/2001/REC-SVG-20010904/DTD/svg10.dtd">
<svg version="1.0" xmlns="http://www.w3.org/2000/svg"
 width="582.000000pt" height="582.000000pt" viewBox="0 0 582.000000 582.000000"
 preserveAspectRatio="xMidYMid meet">
<metadata>
Created by potrace 1.11, written by Peter Selinger 2001-2013
</metadata>
<g transform="translate(0.000000,582.000000) scale(0.100000,-0.100000)"
fill="#000000" stroke="none">
<path d="M2872 5807 c-50 -14 -48 -10 -143 -212 -38 -82 -81 -171 -95 -197
-14 -26 -25 -50 -25 -53 1 -3 -35 -80 -79 -171 -44 -92 -80 -168 -80 -169 0
-2 -27 -60 -61 -131 -39 -82 -58 -135 -55 -148 3 -12 82 -138 175 -281 202
-310 292 -449 306 -473 6 -9 12 -19 15 -22 3 -3 43 -62 89 -132 46 -71 86
-128 89 -128 3 0 211 205 462 456 l457 456 -14 57 c-8 31 -15 63 -17 71 -2 8
-9 33 -14 55 -6 22 -13 52 -16 67 -2 15 -7 31 -10 36 -3 5 -7 19 -10 33 -2 13
-9 44 -16 69 -6 25 -13 58 -16 73 -3 16 -12 46 -19 67 -7 21 -11 40 -8 43 2 3
0 15 -6 26 -6 11 -13 33 -15 48 -6 41 -24 96 -34 102 -15 10 -173 153 -216
196 -23 22 -72 82 -111 132 -70 92 -87 104 -165 118 -14 2 -36 7 -50 10 -52
13 -275 14 -318 2z"/>
<path d="M2588 5805 c-2 -2 -28 -6 -58 -9 -30 -3 -70 -10 -88 -15 -18 -5 -35
-10 -37 -10 -12 1 -71 -14 -80 -19 -5 -4 -21 -8 -35 -10 -27 -3 -40 -15 -140
-133 -93 -109 -103 -120 -130 -159 -13 -19 -27 -37 -30 -40 -3 -3 -26 -34 -51
-70 -24 -36 -47 -66 -51 -68 -5 -2 -8 -10 -8 -18 0 -8 -4 -14 -8 -14 -5 0 -24
-24 -42 -52 -19 -29 -38 -57 -43 -63 -13 -15 -151 -210 -215 -304 -31 -46 -63
-89 -69 -96 -7 -8 -13 -16 -13 -20 0 -5 81 -1 190 10 25 2 74 7 110 10 72 6
147 14 200 20 19 2 69 7 110 11 41 3 88 8 104 9 33 3 49 20 76 80 10 22 55
117 100 210 45 94 104 217 132 275 27 58 63 132 78 165 16 33 30 63 31 67 1 3
26 55 55 115 28 59 49 112 45 116 -8 8 -126 18 -133 12z"/>
<path d="M3456 5749 c5 -8 26 -35 47 -60 l37 -47 65 35 c68 36 74 47 28 56
-16 3 -39 8 -52 11 -13 3 -49 8 -79 12 -47 5 -55 4 -46 -7z"/>
<path d="M1995 5672 c-44 -15 -89 -32 -100 -36 -11 -5 -26 -10 -33 -12 -7 -1
-20 -8 -29 -16 -14 -11 -11 -14 18 -20 19 -4 57 -10 84 -14 28 -3 53 -8 56
-10 5 -3 97 97 113 124 11 19 -20 14 -109 -16z"/>
<path d="M3760 5666 c-79 -42 -127 -70 -139 -81 -13 -13 -2 -26 93 -108 12
-10 33 -29 49 -43 l28 -25 137 61 c176 77 172 75 147 95 -34 27 -95 56 -179
86 -92 33 -101 34 -136 15z"/>
<path d="M1624 5505 c-71 -24 -164 -69 -216 -106 -14 -11 -30 -19 -35 -19 -27
0 -44 -39 -58 -132 l-5 -38 48 -1 c26 -1 58 -3 72 -4 129 -11 212 -17 250 -19
l45 -2 78 108 c42 60 77 113 77 118 0 6 4 10 8 10 9 0 46 59 40 65 -2 2 -46
11 -98 19 -52 9 -104 18 -115 20 -11 2 -52 -6 -91 -19z"/>
<path d="M4080 5446 c-52 -23 -129 -59 -171 -78 l-76 -36 33 -133 c19 -74 37
-150 40 -169 3 -19 9 -42 13 -50 4 -8 13 -42 20 -75 7 -33 17 -71 21 -85 5
-14 12 -38 16 -55 4 -16 9 -36 11 -42 1 -7 4 -19 6 -25 11 -46 20 -58 35 -54
9 3 33 7 52 10 19 3 46 8 60 11 14 3 34 7 45 9 25 5 98 17 128 21 12 2 47 8
77 14 56 12 105 20 144 25 68 9 146 30 146 40 0 6 -7 49 -15 96 -8 47 -17 103
-20 125 -3 23 -7 52 -10 65 -3 13 -7 42 -11 65 -3 22 -7 45 -8 50 -1 6 -19 42
-39 80 -35 67 -42 74 -135 131 -91 56 -166 88 -237 98 -21 4 -58 -8 -125 -38z"/>
<path d="M1197 5259 c-34 -26 -34 -35 -2 -35 19 0 27 7 32 23 8 33 0 37 -30
12z"/>
<path d="M1010 5110 c-25 -23 -60 -55 -78 -71 -19 -17 -57 -65 -86 -107 -42
-63 -57 -97 -80 -184 -15 -59 -25 -112 -22 -117 4 -5 17 -8 30 -5 12 2 52 6
87 9 35 2 80 7 99 9 19 3 64 8 100 11 36 3 81 7 100 10 19 2 62 7 95 10 65 7
107 12 116 14 6 1 69 89 69 96 0 3 7 13 16 23 24 26 204 285 201 288 -5 5 -67
13 -152 19 -90 6 -176 13 -250 19 -27 3 -84 8 -125 11 l-75 6 -45 -41z"/>
<path d="M4715 5093 c3 -26 8 -49 10 -52 2 -3 6 -30 9 -59 3 -30 8 -57 10 -60
2 -4 7 -31 10 -61 11 -94 14 -100 60 -111 22 -6 66 -18 96 -27 30 -8 64 -17
75 -20 11 -2 25 -5 30 -7 34 -10 87 -18 90 -14 7 6 -20 128 -35 161 -7 15 -17
27 -21 27 -4 0 -15 13 -26 29 -10 16 -39 51 -64 78 -102 106 -150 145 -187
154 -63 15 -64 14 -57 -38z"/>
<path d="M602 4673 c-52 -70 -102 -147 -102 -158 0 -9 37 10 83 43 48 34 62
56 77 117 4 17 10 40 14 53 14 43 -13 22 -72 -55z"/>
<path d="M5190 4705 c0 -31 26 -73 52 -83 l30 -11 -18 27 c-21 33 -64 78 -64
67z"/>
<path d="M2148 4675 c-2 -2 -44 -6 -95 -9 -50 -4 -101 -9 -113 -11 -11 -2 -60
-7 -108 -11 -101 -7 -127 -10 -202 -18 -30 -3 -82 -8 -115 -11 -33 -3 -76 -8
-95 -10 -19 -3 -64 -8 -99 -11 -36 -2 -83 -7 -105 -10 -37 -4 -67 -7 -206 -19
-25 -2 -63 -6 -85 -9 -22 -3 -69 -8 -105 -11 -132 -10 -119 -5 -320 -146 -99
-70 -159 -140 -212 -246 -40 -80 -51 -113 -52 -150 0 -48 11 -164 20 -206 2
-12 7 -38 9 -57 3 -19 7 -44 10 -55 2 -11 6 -41 9 -67 4 -27 9 -69 12 -95 3
-27 7 -69 9 -94 2 -26 13 -80 25 -120 13 -41 23 -78 24 -84 1 -5 11 -37 21
-70 10 -33 19 -62 20 -65 8 -34 25 -70 171 -376 19 -39 39 -71 46 -71 21 -1
113 -13 139 -18 39 -8 71 -14 119 -20 25 -3 56 -8 70 -10 14 -2 45 -7 70 -11
54 -7 96 -14 130 -19 14 -3 45 -7 70 -10 25 -3 52 -7 60 -10 8 -2 38 -7 66
-10 28 -3 61 -8 75 -10 13 -3 44 -8 69 -11 25 -3 56 -7 70 -10 45 -8 84 -14
120 -18 58 -8 113 -16 150 -23 19 -3 44 -7 55 -9 58 -7 113 -15 137 -20 27 -5
77 14 111 44 9 8 17 12 17 8 0 -4 6 -2 13 4 6 6 93 60 192 120 99 61 187 114
195 120 8 6 62 39 120 73 58 35 121 73 140 85 19 13 66 37 103 54 l68 32 -6
276 c-3 151 -6 293 -8 315 -2 32 -25 75 -117 218 -63 97 -119 185 -125 194 -5
10 -12 20 -15 23 -3 3 -53 79 -112 170 -184 284 -236 364 -258 395 -11 17 -33
49 -48 72 -26 42 -28 43 -79 42 -29 -1 -54 -3 -55 -4z"/>
<path d="M4655 4670 c-22 -4 -58 -11 -80 -14 -22 -4 -76 -13 -120 -21 -102
-19 -127 -23 -200 -35 -33 -5 -71 -12 -85 -15 -60 -12 -77 -15 -115 -20 -22
-3 -49 -12 -60 -19 -11 -8 -230 -223 -486 -480 l-466 -466 3 -152 c2 -84 5
-226 6 -315 l3 -161 387 -196 388 -195 95 34 c53 19 101 37 106 40 5 4 17 8
26 10 18 4 490 173 668 240 50 18 149 54 220 80 152 54 232 84 260 95 11 5 73
27 137 50 68 25 120 49 123 59 4 9 40 112 81 230 80 232 80 231 50 376 -24
115 -40 190 -66 300 -18 72 -32 136 -32 143 -1 8 -29 62 -62 120 l-61 106
-109 54 c-78 38 -153 65 -260 93 -83 21 -165 44 -183 49 -46 16 -122 20 -168
10z"/>
<path d="M148 3743 c-17 -18 -33 -52 -43 -93 -9 -36 -18 -71 -21 -79 -2 -8 10
-3 28 11 18 13 45 33 59 43 24 18 25 22 17 75 -5 30 -10 59 -11 63 -1 4 -14
-5 -29 -20z"/>
<path d="M5705 3670 c12 -41 27 -60 20 -25 -4 17 -11 35 -17 40 -7 7 -8 2 -3
-15z"/>
<path d="M130 3490 c-35 -28 -68 -56 -71 -63 -7 -11 -10 -28 -24 -124 -7 -47
2 -54 30 -23 10 11 24 20 31 20 7 0 14 3 16 8 2 4 27 25 56 46 l54 39 -6 61
c-3 34 -5 67 -5 74 -1 20 -13 14 -81 -38z"/>
<path d="M5663 3498 c-6 -18 -36 -105 -67 -192 l-56 -159 73 -121 c39 -67 74
-125 76 -131 2 -5 7 -12 10 -15 3 -3 14 -18 23 -35 9 -16 22 -31 30 -34 7 -2
10 -1 6 3 -3 4 -2 22 3 39 5 18 12 48 14 67 3 19 12 69 19 110 14 72 14 204 0
280 -3 19 -7 42 -8 50 -5 29 -45 102 -67 120 -3 3 -11 15 -18 28 -16 30 -26
28 -38 -10z"/>
<path d="M127 3219 c-59 -43 -107 -80 -108 -81 0 -2 -3 -49 -6 -106 -5 -105 3
-212 16 -212 8 0 273 218 282 232 3 5 0 28 -8 51 -8 23 -16 49 -18 57 -8 41
-37 130 -43 134 -4 2 -56 -31 -115 -75z"/>
<path d="M5230 2999 c-118 -43 -262 -95 -320 -115 -58 -20 -118 -42 -135 -49
-30 -13 -156 -59 -165 -61 -3 0 -12 -4 -20 -7 -15 -7 -177 -65 -195 -71 -5 -2
-17 -6 -25 -9 -8 -3 -107 -40 -220 -80 -244 -89 -260 -95 -260 -101 0 -2 14
-35 31 -72 17 -38 37 -82 44 -99 18 -41 277 -617 308 -685 22 -48 189 -415
265 -582 l25 -57 42 24 c23 12 80 47 127 76 46 30 92 59 101 64 219 132 454
304 512 376 27 34 54 67 60 73 5 6 48 56 95 111 47 55 88 102 92 105 4 3 28
49 53 103 68 144 110 319 109 452 -1 54 -11 200 -15 200 0 0 -2 17 -4 37 -2
21 -13 51 -24 67 -12 16 -21 32 -21 35 0 3 -13 25 -30 49 -16 25 -30 50 -30
56 0 6 -4 11 -10 11 -5 0 -10 4 -10 9 0 5 -30 57 -66 115 -43 68 -72 106 -83
105 -9 -1 -113 -37 -231 -80z"/>
<path d="M319 2942 c-14 -9 -85 -66 -157 -125 l-131 -109 3 -116 c6 -172 27
-259 84 -343 25 -38 49 -69 52 -69 7 0 50 51 119 140 28 36 54 70 59 75 108
136 165 210 166 220 1 13 -156 345 -164 345 -3 0 -17 -8 -31 -18z"/>
<path d="M2945 2870 c-122 -56 -851 -509 -851 -529 -1 -15 -11 -99 -19 -151
-2 -14 -6 -43 -10 -65 -3 -23 -7 -50 -9 -61 -2 -12 -7 -45 -11 -75 -3 -30 -8
-65 -11 -79 -2 -14 -6 -45 -9 -70 -3 -25 -7 -56 -9 -70 -3 -14 -8 -47 -11 -75
-3 -27 -10 -77 -15 -110 -5 -33 -12 -80 -15 -105 -3 -25 -8 -56 -10 -70 -2
-14 -7 -47 -11 -75 -3 -27 -7 -57 -9 -65 -1 -8 -6 -38 -9 -65 l-7 -51 57 -64
c31 -36 84 -96 118 -134 34 -39 75 -84 91 -101 17 -18 51 -56 77 -86 139 -161
135 -158 368 -259 41 -18 91 -40 110 -49 19 -8 37 -16 40 -17 30 -4 151 -74
297 -172 99 -65 193 -122 209 -124 16 -3 63 -13 104 -23 91 -20 150 -28 211
-29 49 0 269 62 269 76 0 4 9 8 20 8 11 0 20 5 20 10 0 6 7 10 16 10 18 0 133
75 174 112 14 13 46 39 71 58 43 32 58 57 182 306 131 261 135 272 122 300 -8
16 -25 55 -40 86 -14 32 -37 84 -51 115 -15 32 -43 96 -64 143 -21 47 -52 117
-70 155 -18 39 -49 108 -70 155 -21 47 -52 117 -70 155 -18 39 -61 135 -97
215 -36 80 -77 170 -91 200 -14 30 -26 57 -27 60 -4 14 -27 64 -67 150 l-45
95 -219 110 c-120 60 -232 119 -249 130 -16 11 -31 19 -33 17 -1 -2 -56 24
-121 57 -168 86 -157 83 -226 51z"/>
<path d="M584 2553 c-6 -5 -58 -69 -117 -143 -59 -74 -115 -144 -124 -156 -58
-67 -134 -174 -130 -181 3 -4 8 -37 12 -73 4 -36 9 -74 11 -85 4 -21 10 -67
19 -144 3 -25 28 -92 56 -150 45 -92 63 -117 138 -192 48 -48 98 -90 111 -93
14 -4 129 -42 255 -84 l230 -76 255 2 c449 3 541 5 546 13 3 5 7 25 9 46 2 21
6 52 9 68 2 17 8 50 11 75 4 25 9 54 11 64 2 11 6 44 9 75 3 31 7 63 10 71 2
8 7 38 10 65 4 28 8 61 10 75 2 14 7 48 10 75 3 28 10 77 15 110 5 33 12 79
15 103 10 83 15 117 19 137 2 11 7 47 10 80 4 33 9 72 12 87 4 24 0 27 -34 33
-58 9 -104 16 -137 20 -16 2 -75 11 -130 20 -100 16 -111 18 -195 30 -25 4
-58 9 -75 11 -16 3 -45 7 -64 10 -19 2 -46 6 -60 9 -107 18 -164 25 -169 21
-2 -3 -12 -1 -21 3 -9 5 -41 12 -71 16 -30 4 -64 8 -75 10 -25 4 -147 22 -200
30 -22 3 -49 8 -61 10 -49 11 -120 15 -130 8z"/>
<path d="M5389 1473 c-29 -32 -49 -128 -26 -120 19 6 59 93 55 122 l-3 27 -26
-29z"/>
<path d="M5224 1334 c-131 -89 -145 -101 -150 -132 -1 -7 -5 -65 -9 -130 l-6
-117 48 50 c97 101 144 170 149 216 8 84 12 139 9 139 -1 0 -20 -12 -41 -26z"/>
<path d="M622 1176 c121 -230 300 -409 472 -472 36 -13 66 -22 66 -20 0 9
-140 409 -145 414 -3 3 -58 22 -123 43 -64 20 -159 51 -210 67 l-92 30 32 -62z"/>
<path d="M4885 1108 c-49 -32 -99 -62 -110 -68 -11 -5 -58 -33 -105 -63 -64
-41 -91 -65 -112 -100 -15 -26 -24 -47 -20 -47 4 0 3 -4 -3 -8 -9 -6 -99 -179
-100 -192 -1 -3 -12 -25 -25 -50 -13 -25 -32 -62 -42 -83 l-18 -38 23 7 c187
58 366 159 467 265 8 9 39 41 68 71 59 61 58 56 67 203 4 61 8 120 10 133 1
12 0 24 -4 26 -3 1 -46 -24 -96 -56z"/>
<path d="M1205 1092 c-83 -3 -99 -7 -88 -24 4 -7 8 -17 9 -23 3 -12 61 -182
73 -210 9 -22 31 -84 35 -100 2 -5 6 -19 10 -30 5 -11 13 -33 19 -50 19 -50
123 -214 148 -233 13 -9 33 -22 44 -28 11 -6 43 -23 70 -39 49 -27 199 -85
221 -85 6 0 74 35 150 78 77 44 159 90 184 104 25 14 63 35 85 48 22 12 57 32
78 44 87 48 81 39 47 77 -55 60 -84 93 -160 179 -41 47 -79 90 -85 96 -5 6
-39 44 -75 84 -36 40 -73 82 -83 94 -18 20 -26 21 -315 21 -164 0 -328 -1
-367 -3z"/>
<path d="M1180 582 c0 -4 10 -13 23 -21 22 -14 22 -14 3 8 -20 22 -26 25 -26
13z"/>
<path d="M2376 522 c-2 -4 -33 -22 -68 -40 -75 -40 -99 -53 -293 -162 -82 -46
-153 -89 -157 -94 -8 -12 114 -76 143 -76 8 0 19 -3 23 -8 4 -4 11 -7 14 -8 4
0 26 -6 50 -13 44 -12 51 -14 155 -29 55 -8 98 -8 192 2 22 2 49 5 61 5 11 1
29 9 40 18 10 10 62 53 114 95 115 92 153 129 143 138 -4 4 -33 17 -63 30 -30
12 -88 38 -128 56 -41 19 -75 34 -77 34 -3 0 -28 11 -57 24 -73 32 -87 36 -92
28z"/>
<path d="M2760 194 c-69 -58 -129 -109 -133 -113 -6 -6 74 -55 92 -56 3 -1 15
-5 26 -11 11 -6 74 -12 140 -13 l120 -3 53 37 c73 50 102 76 96 87 -7 10 -239
167 -257 173 -7 2 -68 -44 -137 -101z"/>
<path d="M3210 41 l-35 -30 45 5 c70 9 124 25 114 34 -5 5 -27 12 -49 15 -35
6 -45 2 -75 -24z"/>
</g>
</svg>
