<svg xmlns="http://www.w3.org/2000/svg" viewBox="0 0 99 99.154"><path fill="#DD2D2D" d="M97.5 49.577a48.117 48.117 0 00-14.059-33.996A47.962 47.962 0 0049.5 1.5a47.962 47.962 0 00-33.941 14.081C6.557 24.598 1.5 36.826 1.5 49.577s5.057 24.979 14.059 33.996A47.962 47.962 0 0049.5 97.654a47.962 47.962 0 0033.941-14.081A48.117 48.117 0 0097.5 49.577z"/><path fill="none" stroke="#FFF" stroke-width="3" stroke-linecap="round" stroke-miterlimit="3.25" d="M61.795 94.671l5.988-.745M61.795 94.671l-5.535 2.407M75.641 13.286l-3.175-5.817M75.641 13.286l6.511 1.183M4.348 53.539l-1.676 6.152M4.348 53.539L1.63 47.773M52.934 94.387l8.861.284M52.934 94.387l-8.617 2.889M42.19 3.676l-6.075-.169M42.19 3.676l5.721-2.054M96.121 40.315l-1.161-5.867M96.121 40.315l1.163 5.868M45.981 4.383l-3.791-.707M45.981 4.383L49.5 1.596M79.479 21.509l10.332 2.144M79.479 21.509l-3.838-8.223M6.56 30.751l-2.996 5.216M6.56 30.751l1.793-5.744M96.234 49.224l-.113-8.909M96.234 49.224l.403 8.905M77.707 78.913l9.066.804M77.707 78.913l.462 9.105M75.701 67.577l2.006 11.336M75.701 67.577l17.358 1.967M21.766 13.651l3.385-5.395M21.766 13.651l-6.064 1.923M67.1 18.207l12.379 3.302M67.1 18.207L61.352 3.088M27.473 91.605l5.223 2.904M27.473 91.605l-5.353-2.657M42.366 82.898l10.568 11.489M42.366 82.898l-14.893 8.707M12.805 43.385L6.56 30.751M12.805 43.385L4.348 53.539M69.943 54.523l26.291-5.299M69.943 54.523l5.758 13.054M54.975 19.815L45.981 4.383M54.975 19.815L67.1 18.207M10.85 75.352l-4.224-4.371M10.85 75.352l2.396 5.587M33.382 70.38l8.984 12.518M33.382 70.38L10.85 75.352M44.759 46.478l-31.954-3.093M44.759 46.478L21.766 13.651M49.5 49.577L33.382 70.38M49.5 49.577l-4.741-3.099M56.441 42.931l-1.466-23.116M56.441 42.931l13.502 11.592M49.5 49.577l6.941-6.646M97.5 49.577a48.117 48.117 0 00-14.059-33.996A47.962 47.962 0 0049.5 1.5a47.962 47.962 0 00-33.941 14.081C6.557 24.598 1.5 36.826 1.5 49.577s5.057 24.979 14.059 33.996A47.962 47.962 0 0049.5 97.654a47.962 47.962 0 0033.941-14.081A48.117 48.117 0 0097.5 49.577z"/></svg>