<svg xmlns="http://www.w3.org/2000/svg" class="d3-component" style="font-family:sans-serif;font-size:1.25rem" viewBox="0 0 1200 680"><g transform="translate(75,0)"><path fill="none" stroke="#ccc" stroke-width="3px" d="M 180 349.71428571428567
              C 90 349.71428571428567,
                90 369.1428571428571,
                0 369.1428571428571"></path><path fill="none" stroke="#ccc" stroke-width="3px" d="M 180 388.57142857142856
              C 90 388.57142857142856,
                90 369.1428571428571,
                0 369.1428571428571"></path><path fill="none" stroke="#ccc" stroke-width="3px" d="M 360 136
              C 270 136,
                270 388.57142857142856,
                180 388.57142857142856"></path><path fill="none" stroke="#ccc" stroke-width="3px" d="M 360 369.1428571428571
              C 270 369.1428571428571,
                270 388.57142857142856,
                180 388.57142857142856"></path><path fill="none" stroke="#ccc" stroke-width="3px" d="M 360 446.85714285714283
              C 270 446.85714285714283,
                270 388.57142857142856,
                180 388.57142857142856"></path><path fill="none" stroke="#ccc" stroke-width="3px" d="M 360 524.5714285714286
              C 270 524.5714285714286,
                270 388.57142857142856,
                180 388.57142857142856"></path><path fill="none" stroke="#ccc" stroke-width="3px" d="M 360 563.4285714285713
              C 270 563.4285714285713,
                270 388.57142857142856,
                180 388.57142857142856"></path><path fill="none" stroke="#ccc" stroke-width="3px" d="M 360 602.2857142857142
              C 270 602.2857142857142,
                270 388.57142857142856,
                180 388.57142857142856"></path><path fill="none" stroke="#ccc" stroke-width="3px" d="M 360 641.1428571428571
              C 270 641.1428571428571,
                270 388.57142857142856,
                180 388.57142857142856"></path><path fill="none" stroke="#ccc" stroke-width="3px" d="M 540 38.857142857142854
              C 450 38.857142857142854,
                450 136,
                360 136"></path><path fill="none" stroke="#ccc" stroke-width="3px" d="M 540 77.71428571428571
              C 450 77.71428571428571,
                450 136,
                360 136"></path><path fill="none" stroke="#ccc" stroke-width="3px" d="M 540 116.57142857142856
              C 450 116.57142857142856,
                450 136,
                360 136"></path><path fill="none" stroke="#ccc" stroke-width="3px" d="M 540 155.42857142857142
              C 450 155.42857142857142,
                450 136,
                360 136"></path><path fill="none" stroke="#ccc" stroke-width="3px" d="M 540 194.28571428571428
              C 450 194.28571428571428,
                450 136,
                360 136"></path><path fill="none" stroke="#ccc" stroke-width="3px" d="M 540 233.1428571428571
              C 450 233.1428571428571,
                450 136,
                360 136"></path><path fill="none" stroke="#ccc" stroke-width="3px" d="M 540 310.85714285714283
              C 450 310.85714285714283,
                450 369.1428571428571,
                360 369.1428571428571"></path><path fill="none" stroke="#ccc" stroke-width="3px" d="M 540 349.71428571428567
              C 450 349.71428571428567,
                450 369.1428571428571,
                360 369.1428571428571"></path><path fill="none" stroke="#ccc" stroke-width="3px" d="M 540 388.57142857142856
              C 450 388.57142857142856,
                450 369.1428571428571,
                360 369.1428571428571"></path><path fill="none" stroke="#ccc" stroke-width="3px" d="M 540 427.4285714285714
              C 450 427.4285714285714,
                450 369.1428571428571,
                360 369.1428571428571"></path><path fill="none" stroke="#ccc" stroke-width="3px" d="M 540 505.1428571428571
              C 450 505.1428571428571,
                450 524.5714285714286,
                360 524.5714285714286"></path><path fill="none" stroke="#ccc" stroke-width="3px" d="M 540 544
              C 450 544,
                450 524.5714285714286,
                360 524.5714285714286"></path><path fill="none" stroke="#ccc" stroke-width="3px" d="M 720 38.857142857142854
              C 630 38.857142857142854,
                630 38.857142857142854,
                540 38.857142857142854"></path><path fill="none" stroke="#ccc" stroke-width="3px" d="M 720 213.7142857142857
              C 630 213.7142857142857,
                630 233.1428571428571,
                540 233.1428571428571"></path><path fill="none" stroke="#ccc" stroke-width="3px" d="M 720 252.57142857142856
              C 630 252.57142857142856,
                630 233.1428571428571,
                540 233.1428571428571"></path><path fill="none" stroke="#ccc" stroke-width="3px" d="M 900 213.7142857142857
              C 810 213.7142857142857,
                810 252.57142857142856,
                720 252.57142857142856"></path><path fill="none" stroke="#ccc" stroke-width="3px" d="M 900 252.57142857142856
              C 810 252.57142857142856,
                810 252.57142857142856,
                720 252.57142857142856"></path><path fill="none" stroke="#ccc" stroke-width="3px" d="M 900 291.4285714285714
              C 810 291.4285714285714,
                810 252.57142857142856,
                720 252.57142857142856"></path><g class="node" transform="translate(0,369.1428571428571)"><circle class="node" r="15" style="fill: rgb(215, 215, 215); stroke: rgb(186, 186, 186);"></circle><text dy=".35em" x="-20" text-anchor="end" fill="#777" font-weight="700">19A</text></g><g class="node" transform="translate(180,349.71428571428567)"><circle class="node" r="15" style="fill: rgb(206, 206, 206); stroke: rgb(179, 179, 179);"></circle><text dy=".35em" x="20" text-anchor="start" fill="#777" font-weight="700">19B</text></g><g class="node" transform="translate(180,388.57142857142856)"><circle class="node" r="15" style="fill: rgb(198, 198, 198); stroke: rgb(171, 171, 171);"></circle><text dy=".35em" x="-20" text-anchor="end" fill="#777" font-weight="700">20A</text></g><g class="node" transform="translate(360,136)"><circle class="node" r="15" style="fill: rgb(189, 189, 189); stroke: rgb(164, 164, 164);"></circle><text dy=".35em" x="-20" text-anchor="end" fill="#777" font-weight="700">20B</text></g><g class="node" transform="translate(360,369.1428571428571)"><circle class="node" r="15" style="fill: rgb(180, 180, 180); stroke: rgb(156, 156, 156);"></circle><text dy=".35em" x="-20" text-anchor="end" fill="#777" font-weight="700">20C</text></g><g class="node" transform="translate(360,446.85714285714283)"><circle class="node" r="15" style="fill: rgb(163, 163, 163); stroke: rgb(142, 142, 142);"></circle><text dy=".35em" x="20" text-anchor="start" fill="#777" font-weight="700">20E</text></g><g class="node" transform="translate(360,524.5714285714286)"><circle class="node" r="15" style="fill: rgb(70, 113, 222); stroke: rgb(61, 98, 193);"></circle><text dy=".35em" x="-20" text-anchor="end" fill="#777" font-weight="700">21A (Delta)</text></g><g class="node" transform="translate(360,563.4285714285713)"><circle class="node" r="15" style="fill: rgb(97, 177, 180); stroke: rgb(84, 154, 156);"></circle><text dy=".35em" x="20" text-anchor="start" fill="#777" font-weight="700">21B (Kappa)</text></g><g class="node" transform="translate(360,602.2857142857142)"><circle class="node" r="15" style="fill: rgb(129, 197, 134); stroke: rgb(112, 170, 116);"></circle><text dy=".35em" x="20" text-anchor="start" fill="#777" font-weight="700">21D (Eta)</text></g><g class="node" transform="translate(360,641.1428571428571)"><circle class="node" r="15" style="fill: rgb(212, 199, 74); stroke: rgb(183, 172, 64);"></circle><text dy=".35em" x="20" text-anchor="start" fill="#777" font-weight="700">21H (Mu)</text></g><g class="node" transform="translate(540,38.857142857142854)"><circle class="node" r="15" style="fill: rgb(172, 172, 172); stroke: rgb(149, 149, 149);"></circle><text dy=".35em" x="-20" text-anchor="end" fill="#777" font-weight="700">20D</text></g><g class="node" transform="translate(540,77.71428571428571)"><circle class="node" r="15" style="fill: rgb(155, 155, 155); stroke: rgb(134, 134, 134);"></circle><text dy=".35em" x="20" text-anchor="start" fill="#777" font-weight="700">20F</text></g><g class="node" transform="translate(540,116.57142857142856)"><circle class="node" r="15" style="fill: rgb(72, 55, 204); stroke: rgb(62, 47, 177);"></circle><text dy=".35em" x="20" text-anchor="start" fill="#777" font-weight="700">20I (Alpha, V1)</text></g><g class="node" transform="translate(540,155.42857142857142)"><circle class="node" r="15" style="fill: rgb(68, 84, 218); stroke: rgb(59, 73, 189);"></circle><text dy=".35em" x="20" text-anchor="start" fill="#777" font-weight="700">20J (Gamma, V3)</text></g><g class="node" transform="translate(540,194.28571428571428)"><circle class="node" r="15" style="fill: rgb(149, 201, 114); stroke: rgb(129, 174, 99);"></circle><text dy=".35em" x="20" text-anchor="start" fill="#777" font-weight="700">21E (Theta)</text></g><g class="node" transform="translate(540,233.1428571428571)"><circle class="node" r="15" style="fill: rgb(247, 151, 58); stroke: rgb(214, 131, 50);"></circle><text dy=".35em" x="-20" text-anchor="end" fill="#777" font-weight="700">21M (Omicron)</text></g><g class="node" transform="translate(540,310.85714285714283)"><circle class="node" r="15" style="fill: rgb(146, 146, 146); stroke: rgb(127, 127, 127);"></circle><text dy=".35em" x="20" text-anchor="start" fill="#777" font-weight="700">20G</text></g><g class="node" transform="translate(540,349.71428571428567)"><circle class="node" r="15" style="fill: rgb(87, 32, 180); stroke: rgb(75, 28, 156);"></circle><text dy=".35em" x="20" text-anchor="start" fill="#777" font-weight="700">20H (Beta, V2)</text></g><g class="node" transform="translate(540,388.57142857142856)"><circle class="node" r="15" style="fill: rgb(112, 188, 157); stroke: rgb(97, 163, 136);"></circle><text dy=".35em" x="20" text-anchor="start" fill="#777" font-weight="700">21C (Epsilon)</text></g><g class="node" transform="translate(540,427.4285714285714)"><circle class="node" r="15" style="fill: rgb(170, 204, 96); stroke: rgb(147, 177, 83);"></circle><text dy=".35em" x="20" text-anchor="start" fill="#777" font-weight="700">21F (Iota)</text></g><g class="node" transform="translate(540,505.1428571428571)"><circle class="node" r="15" style="fill: rgb(75, 140, 216); stroke: rgb(65, 121, 187);"></circle><text dy=".35em" x="20" text-anchor="start" fill="#777" font-weight="700">21I (Delta)</text></g><g class="node" transform="translate(540,544)"><circle class="node" r="15" style="fill: rgb(85, 161, 201); stroke: rgb(74, 140, 174);"></circle><text dy=".35em" x="20" text-anchor="start" fill="#777" font-weight="700">21J (Delta)</text></g><g class="node" transform="translate(720,38.857142857142854)"><circle class="node" r="15" style="fill: rgb(192, 203, 83); stroke: rgb(167, 176, 72);"></circle><text dy=".35em" x="20" text-anchor="start" fill="#777" font-weight="700">21G (Lambda)</text></g><g class="node" transform="translate(720,213.7142857142857)"><circle class="node" r="15" style="fill: rgb(229, 189, 68); stroke: rgb(198, 164, 59);"></circle><text dy=".35em" x="20" text-anchor="start" fill="#777" font-weight="700">21K (Omicron)</text></g><g class="node" transform="translate(720,252.57142857142856)"><circle class="node" r="15" style="fill: rgb(241, 174, 62); stroke: rgb(209, 151, 54);"></circle><text dy=".35em" x="-20" text-anchor="end" fill="#777" font-weight="700">21L (Omicron)</text></g><g class="node" transform="translate(900,213.7142857142857)"><circle class="node" r="15" style="fill: rgb(247, 122, 53); stroke: rgb(214, 106, 46);"></circle><text dy=".35em" x="20" text-anchor="start" fill="#777" font-weight="700">22A (Omicron)</text></g><g class="node" transform="translate(900,252.57142857142856)"><circle class="node" r="15" style="fill: rgb(242, 86, 45); stroke: rgb(210, 74, 39);"></circle><text dy=".35em" x="20" text-anchor="start" fill="#777" font-weight="700">22B (Omicron)</text></g><g class="node" transform="translate(900,291.4285714285714)"><circle class="node" r="15" style="fill: rgb(236, 50, 39); stroke: rgb(205, 44, 34);"></circle><text dy=".35em" x="20" text-anchor="start" fill="#777" font-weight="700">22C (Omicron)</text></g></g></svg>