<svg xmlns="http://www.w3.org/2000/svg" viewBox="0 0 102.2 74"><g transform="translate(-77.7 -164.8)"><circle cx="177.3" cy="172.6" r="2.6" fill="#e8ce4b"/><circle cx="177.3" cy="183.2" r="2.6" fill="#a8d66e"/><circle cx="177.3" cy="193.8" r="2.6" fill="#ff923a"/><circle cx="177.3" cy="204.4" r="2.6" fill="#a8d66e"/><circle cx="177.3" cy="215" r="2.6" fill="#4c87e8"/><circle cx="177.3" cy="236.1" r="2.6" fill="#4c87e8"/><circle cx="177.3" cy="225.6" r="2.6" fill="#6ec2b2"/><path fill="none" stroke="#a8d66e" d="M129.6 172.6h-5.2v31.8h52.9"/><path fill="none" stroke="#e8ce4b" stroke-width="1.005" d="M129.6 172.6h47.7"/><path fill="none" stroke="#a8d66e" d="M177.3 183.2h-53"/><path fill="none" stroke="#ff923a" d="M177.3 193.8h-47.7"/><path fill="none" stroke="#4c87e8" d="M177.3 236.1H92.6v-47.6h26.5"/><path fill="none" stroke="#6ec2b2" d="M177.3 225.6H97.9"/><path fill="none" stroke="#4c87e8" d="M177.3 215H92.6"/><path fill="none" stroke="#a8d66e" d="M129.6 193.8h-5.2m0-5.3H119"/><path fill="none" stroke="#4c87e8" d="M97.9 225.6h-5.3m0-15.9h-5.3"/><text style="line-height:1.25;-inkscape-font-specification:sans-serif" x="76.7" y="207" fill="#4c87e8" stroke-width=".3" font-family="sans-serif" font-size="7.1" font-weight="400" letter-spacing="0" word-spacing="0"><tspan x="76.7" y="207">19A</tspan></text><text style="line-height:1.25;-inkscape-font-specification:sans-serif" x="95.3" y="222.9" fill="#6ec2b2" stroke-width=".3" font-family="sans-serif" font-size="7.1" font-weight="400" letter-spacing="0" word-spacing="0"><tspan x="95.3" y="222.9">19B</tspan></text><text style="line-height:1.25;-inkscape-font-specification:sans-serif" x="108.5" y="185.9" fill="#a8d66e" stroke-width=".3" font-family="sans-serif" font-size="7.1" font-weight="400" letter-spacing="0" word-spacing="0"><tspan x="108.5" y="185.9">20A</tspan></text><text style="line-height:1.25;-inkscape-font-specification:sans-serif" x="127" y="191.2" fill="#ff923a" stroke-width=".3" font-family="sans-serif" font-size="7.1" font-weight="400" letter-spacing="0" word-spacing="0"><tspan x="127" y="191.2">20C</tspan></text><text style="line-height:1.25;-inkscape-font-specification:sans-serif" x="127" y="170" fill="#e5cb4a" stroke-width=".3" font-family="sans-serif" font-size="7.1" font-weight="400" letter-spacing="0" word-spacing="0"><tspan x="127" y="170">20B</tspan></text></g></svg>