<svg xmlns="http://www.w3.org/2000/svg" class="d3-component" viewBox="-70 0 830 550" font-family="sans-serif" font-size="1.25rem"><path fill="none" stroke="#ccc" stroke-width="3" d="M180 328.226c-90 0-90 17.742-180 17.742M180 363.71c-90 0-90-17.742-180-17.742M360 141.935c-90 0-90 186.29-180 186.29M360 372.58c-90 0-90-44.354-180-44.354M360 408.065c-90 0-90-79.84-180-79.84M360 443.548c-90 0-90-115.322-180-115.322M360 479.032c-90 0-90-150.806-180-150.806M360 514.516c-90 0-90-186.29-180-186.29M540 35.484c-90 0-90 106.451-180 106.451M540 70.968c-90 0-90 70.967-180 70.967M540 106.452c-90 0-90 35.483-180 35.483M540 141.935H360M540 177.42c-90 0-90-35.485-180-35.485M540 212.903c-90 0-90-70.968-180-70.968M540 248.387c-90 0-90-106.452-180-106.452M540 319.355c-90 0-90 53.226-180 53.226M540 354.839c-90 0-90 17.742-180 17.742M540 390.323c-90 0-90-17.742-180-17.742M540 425.806c-90 0-90-53.225-180-53.225"/><g class="node" transform="translate(0 345.968)"><circle class="node" r="15" cursor="pointer" fill="#463bd0" stroke="#3d33b5"/><text dy=".35em" x="-20" text-anchor="end" fill="#777" font-weight="700">19A</text></g><g class="node" transform="translate(180 328.226)"><circle class="node" r="15" cursor="pointer" fill="#5197d0" stroke="#4683b5"/><text dy=".35em" x="-20" text-anchor="end" fill="#777" font-weight="700">20A</text></g><g class="node" transform="translate(180 363.71)"><circle class="node" r="15" cursor="pointer" fill="#456ede" stroke="#3c5fc1"/><text dy=".35em" x="20" fill="#777" font-weight="700">19B</text></g><g class="node" transform="translate(360 141.935)"><circle class="node" r="15" cursor="pointer" fill="#64b4af" stroke="#579c98"/><text dy=".35em" x="-20" text-anchor="end" fill="#777" font-weight="700">20B</text></g><g class="node" transform="translate(360 372.58)"><circle class="node" r="15" cursor="pointer" fill="#80c388" stroke="#6fa976"/><text dy=".35em" x="-20" text-anchor="end" fill="#777" font-weight="700">20C</text></g><g class="node" transform="translate(360 408.065)"><circle class="node" r="15" cursor="pointer" fill="#c6ca51" stroke="#abaf46"/><text dy=".35em" x="20" fill="#777" font-weight="700">20E (EU1)</text></g><g class="node" transform="translate(360 443.548)"><circle class="node" r="15" cursor="pointer" fill="#8497d0" stroke="#7383b5"/><text dy=".35em" x="20" fill="#777" font-weight="700">21A (Delta)</text></g><g class="node" transform="translate(360 479.032)"><circle class="node" r="15" cursor="pointer" fill="#84978c" stroke="#738379"/><text dy=".35em" x="20" fill="#777" font-weight="700">21B (Kappa)</text></g><g class="node" transform="translate(360 514.516)"><circle class="node" r="15" cursor="pointer" fill="#b89702" stroke="#9f8302"/><text dy=".35em" x="20" fill="#777" font-weight="700">21D (Eta)</text></g><g class="node" transform="translate(540 35.484)"><circle class="node" r="15" cursor="pointer" fill="#ec3227" stroke="#cd2c22"/><text dy=".35em" x="20" fill="#777" font-weight="700">20I (Alpha, V1)</text></g><g class="node" transform="translate(540 70.968)"><circle class="node" r="15" cursor="pointer" fill="#96446b" stroke="#823b5d"/><text dy=".35em" x="20" fill="#777" font-weight="700">20J (Gamma, V3)</text></g><g class="node" transform="translate(540 106.452)"><circle class="node" r="15" cursor="pointer" fill="#e4be44" stroke="#c5a53b"/><text dy=".35em" x="20" fill="#777" font-weight="700">20F</text></g><g class="node" transform="translate(540 141.935)"><circle class="node" r="15" cursor="pointer" fill="#a1cb67" stroke="#8cb059"/><text dy=".35em" x="20" fill="#777" font-weight="700">20D</text></g><g class="node" transform="translate(540 177.42)"><circle class="node" r="15" cursor="pointer" fill="#ba4d26" stroke="#a14321"/><text dy=".35em" x="20" fill="#777" font-weight="700">21E (Theta)</text></g><g class="node" transform="translate(540 212.903)"><circle class="node" r="15" cursor="pointer" fill="#1292a4" stroke="#107f8e"/><text dy=".35em" x="20" fill="#777" font-weight="700">21G (Lambda)</text></g><g class="node" transform="translate(540 248.387)"><circle class="node" r="15" cursor="pointer" fill="#4992a4" stroke="#3f7f8e"/><text dy=".35em" x="20" fill="#777" font-weight="700">21H</text></g><g class="node" transform="translate(540 319.355)"><circle class="node" r="15" cursor="pointer" fill="#f56f32" stroke="#d4602c"/><text dy=".35em" x="20" fill="#777" font-weight="700">20H (Beta, V2)</text></g><g class="node" transform="translate(540 354.839)"><circle class="node" r="15" cursor="pointer" fill="#f6a13c" stroke="#d58c34"/><text dy=".35em" x="20" fill="#777" font-weight="700">20G</text></g><g class="node" transform="translate(540 390.323)"><circle class="node" r="15" cursor="pointer" fill="#08b288" stroke="#079b76"/><text dy=".35em" x="20" fill="#777" font-weight="700">21C (Epsilon)</text></g><g class="node" transform="translate(540 425.806)"><circle class="node" r="15" cursor="pointer" fill="#3be688" stroke="#33c776"/><text dy=".35em" x="20" fill="#777" font-weight="700">21F (Iota)</text></g></svg>
