<svg xmlns="http://www.w3.org/2000/svg" xml:space="preserve" id="Calque_1" x="0" y="0" version="1.1" viewBox="0 0 27.2 27.2"><style>.st1{fill:red}</style><path fill="#fff" d="M21 .8H6.1C3.2.8.8 3.2.8 6.1V21c0 2.9 2.4 5.3 5.3 5.3H21c2.9 0 5.3-2.4 5.3-5.3V6.1c0-2.9-2.4-5.3-5.3-5.3z"/><path d="M6.1.8C3.2.8.8 3.2.8 6.1v7.8l5.9-2.4c0-1.1.8-2 1.8-2.3L9.9.7H6.1z" class="st1"/><path d="M21 .8h-9l-1.4 8.8c.7.4 1.1 1.2 1.1 2.1v.1l7.6 4.3c.4-.3 1-.5 1.5-.5 1.4 0 2.5 1.1 2.5 2.5s-1.1 2.5-2.5 2.5-2.5-1.1-2.5-2.5v-.2l-7.6-4.3c-.4.3-1 .6-1.6.6-.7 0-1.3-.3-1.7-.7L.7 16.1V21c0 2.9 2.4 5.3 5.3 5.3h15c2.9 0 5.3-2.4 5.3-5.3V6.1c0-2.9-2.4-5.3-5.3-5.3z" class="st1"/></svg>