<svg xmlns="http://www.w3.org/2000/svg" viewBox="0 0 19.53 19.24"><defs><style>.cls-1{fill:#5a2d87}</style></defs><g id="Layer_2" data-name="Layer 2"><g id="Layer_1-2" data-name="Layer 1"><g id="Symbols"><g id="Navi"><g id="Group-38"><path id="Fill-1" class="cls-1" d="M7.58 14.45h-2.4a.84.84 0 01-.84-.83v-8.3a.84.84 0 01.84-.83h2.31a2.72 2.72 0 012.9 2.73 2.69 2.69 0 01-1 2.07 2.88 2.88 0 011.16 2.2v.12a2.91 2.91 0 01-3 2.85M7.5 6.09H6v2.44h1.5a1.19 1.19 0 001.15-1.3A1.09 1.09 0 007.5 6.09m1.36 5.4a1.29 1.29 0 00-1.27-1.36H6v2.73h1.59a1.23 1.23 0 001.27-1.25v-.12"/><path id="Fill-4" class="cls-1" d="M18.65 14.45h-4.24a.84.84 0 01-.92-.9 1.2 1.2 0 01.16-.52l3.85-6.94h-2.93a.8.8 0 110-1.6h4.06a.82.82 0 01.9.87 1.33 1.33 0 01-.13.54l-3.67 6.95h2.94a.8.8 0 110 1.6"/><path id="Fill-11" class="cls-1" d="M10.78.63a.64.64 0 01-.64.63H.64A.64.64 0 010 .63.64.64 0 01.64 0h9.49a.64.64 0 01.64.63"/><path id="Fill-12" class="cls-1" d="M10.78 18.61a.64.64 0 01-.64.63H.64a.63.63 0 110-1.24h9.49a.64.64 0 01.64.63"/></g></g></g></g></g></svg>