<svg xmlns="http://www.w3.org/2000/svg" class="d3-component" style="font-family:sans-serif;font-size:1.25rem" viewBox="0 0 1250 850"><path fill="none" stroke="#ccc" stroke-width="3" d="M270 437.143c-90 0-90 24.286-180 24.286M270 485.714c-90 0-90-24.285-180-24.285M450 170c-90 0-90 315.714-180 315.714"/><path fill="none" stroke="#ccc" stroke-width="3" d="M450 461.429c-90 0-90 24.285-180 24.285M450 558.571c-90 0-90-72.857-180-72.857"/><path fill="none" stroke="#ccc" stroke-width="3" d="M450 655.714c-90 0-90-170-180-170"/><path fill="none" stroke="#ccc" stroke-width="3" d="M450 704.286c-90 0-90-218.572-180-218.572"/><path fill="none" stroke="#ccc" stroke-width="3" d="M450 752.857c-90 0-90-267.143-180-267.143"/><path fill="none" stroke="#ccc" stroke-width="3" d="M450 801.429c-90 0-90-315.715-180-315.715M630 48.571C540 48.571 540 170 450 170"/><path fill="none" stroke="#ccc" stroke-width="3" d="M630 97.143c-90 0-90 72.857-180 72.857"/><path fill="none" stroke="#ccc" stroke-width="3" d="M630 145.714c-90 0-90 24.286-180 24.286M630 194.286c-90 0-90-24.286-180-24.286"/><path fill="none" stroke="#ccc" stroke-width="3" d="M630 242.857c-90 0-90-72.857-180-72.857"/><path fill="none" stroke="#ccc" stroke-width="3" d="M630 291.429C540 291.429 540 170 450 170M630 388.571c-90 0-90 72.858-180 72.858"/><path fill="none" stroke="#ccc" stroke-width="3" d="M630 437.143c-90 0-90 24.286-180 24.286M630 485.714c-90 0-90-24.285-180-24.285"/><path fill="none" stroke="#ccc" stroke-width="3" d="M630 534.286c-90 0-90-72.857-180-72.857M630 631.429c-90 0-90 24.285-180 24.285M630 680c-90 0-90-24.286-180-24.286M810 48.571H630M810 267.143c-90 0-90 24.286-180 24.286M810 315.714c-90 0-90-24.285-180-24.285M990 242.857c-90 0-90 72.857-180 72.857"/><path fill="none" stroke="#ccc" stroke-width="3" d="M990 291.429c-90 0-90 24.285-180 24.285M990 340c-90 0-90-24.286-180-24.286"/><path fill="none" stroke="#ccc" stroke-width="3" d="M990 388.571c-90 0-90-72.857-180-72.857"/><g class="node" transform="translate(90 461.429)"><circle class="node" r="15" style="fill:#d7d7d7;stroke:#bababa"/><text dy=".35em" x="-20" text-anchor="end" fill="#777" font-weight="700">19A (B)</text></g><g class="node" transform="translate(270 437.143)"><circle class="node" r="15" style="fill:#cecece;stroke:#b3b3b3"/><text dy=".35em" x="20" fill="#777" font-weight="700">19B (A)</text></g><g class="node" transform="translate(270 485.714)"><circle class="node" r="15" style="fill:#c6c6c6;stroke:#ababab"/><text dy=".35em" x="-20" text-anchor="end" fill="#777" font-weight="700">20A (B.1)</text></g><g class="node" transform="translate(450 170)"><circle class="node" r="15" style="fill:#bdbdbd;stroke:#a4a4a4"/><text dy=".35em" x="-20" text-anchor="end" fill="#777" font-weight="700">20B (B.1.1)</text></g><g class="node" transform="translate(450 461.429)"><circle class="node" r="15" style="fill:#b4b4b4;stroke:#9c9c9c"/><text dy=".35em" x="-20" text-anchor="end" fill="#777" font-weight="700">20C</text></g><g class="node" transform="translate(450 558.571)"><circle class="node" r="15" style="fill:#a3a3a3;stroke:#8e8e8e"/><text dy=".35em" x="20" fill="#777" font-weight="700">20E (EU1, B.1.177)</text></g><g class="node" transform="translate(450 655.714)"><circle class="node" r="15" style="fill:#456cde;stroke:#3c5ec1"/><text dy=".35em" x="-20" text-anchor="end" fill="#777" font-weight="700">21A (Delta, B.1.617.2)</text></g><g class="node" transform="translate(450 704.286)"><circle class="node" r="15" style="fill:#5cacbb;stroke:#5095a2"/><text dy=".35em" x="20" fill="#777" font-weight="700">21B (Kappa, B.1.617.1)</text></g><g class="node" transform="translate(450 752.857)"><circle class="node" r="15" style="fill:#79c190;stroke:#69a87d"/><text dy=".35em" x="20" fill="#777" font-weight="700">21D (Eta, B.1.525)</text></g><g class="node" transform="translate(450 801.429)"><circle class="node" r="15" style="fill:#c8ca4f;stroke:#adaf45"/><text dy=".35em" x="20" fill="#777" font-weight="700">21H (Mu, B.1.621)</text></g><g class="node" transform="translate(630 48.571)"><circle class="node" r="15" style="fill:#acacac;stroke:#959595"/><text dy=".35em" x="-20" text-anchor="end" fill="#777" font-weight="700">20D (B.1.1.1)</text></g><g class="node" transform="translate(630 97.143)"><circle class="node" r="15" style="fill:#9b9b9b;stroke:#868686"/><text dy=".35em" x="20" fill="#777" font-weight="700">20F (D.2)</text></g><g class="node" transform="translate(630 145.714)"><circle class="node" r="15" style="fill:#4936cb;stroke:#3f2fb0"/><text dy=".35em" x="20" fill="#777" font-weight="700">20I (Alpha, V1, B.1.1.7)</text></g><g class="node" transform="translate(630 194.286)"><circle class="node" r="15" style="fill:#4451d9;stroke:#3b46bc"/><text dy=".35em" x="20" fill="#777" font-weight="700">20J (Gamma, V3, P.1)</text></g><g class="node" transform="translate(630 242.857)"><circle class="node" r="15" style="fill:#8bc87a;stroke:#78ad6a"/><text dy=".35em" x="20" fill="#777" font-weight="700">21E (Theta, P.3)</text></g><g class="node" transform="translate(630 291.429)"><circle class="node" r="15" style="fill:#f3aa3d;stroke:#d29335"/><text dy=".35em" x="-20" text-anchor="end" fill="#777" font-weight="700">21M (Omicron, B.1.1.529)</text></g><g class="node" transform="translate(630 388.571)"><circle class="node" r="15" style="fill:#929292;stroke:#7f7f7f"/><text dy=".35em" x="20" fill="#777" font-weight="700">20G (B.1.2)</text></g><g class="node" transform="translate(630 437.143)"><circle class="node" r="15" style="fill:#5720b4;stroke:#4b1c9c"/><text dy=".35em" x="20" fill="#777" font-weight="700">20H (Beta, V2, B.1.351)</text></g><g class="node" transform="translate(630 485.714)"><circle class="node" r="15" style="fill:#6ab9a5;stroke:#5ca08f"/><text dy=".35em" x="20" fill="#777" font-weight="700">21C (Epsilon, B.1.427/429)</text></g><g class="node" transform="translate(630 534.286)"><circle class="node" r="15" style="fill:#9fcb69;stroke:#8ab05b"/><text dy=".35em" x="20" fill="#777" font-weight="700">21F (Iota, B.1.526)</text></g><g class="node" transform="translate(630 631.429)"><circle class="node" r="15" style="fill:#4987db;stroke:#3f75be"/><text dy=".35em" x="20" fill="#777" font-weight="700">21I (Delta)</text></g><g class="node" transform="translate(630 680)"><circle class="node" r="15" style="fill:#529ccd;stroke:#4787b2"/><text dy=".35em" x="20" fill="#777" font-weight="700">21J (Delta)</text></g><g class="node" transform="translate(810 48.571)"><circle class="node" r="15" style="fill:#b3cc5a;stroke:#9cb14e"/><text dy=".35em" x="20" fill="#777" font-weight="700">21G (Lambda, C.37)</text></g><g class="node" transform="translate(810 267.143)"><circle class="node" r="15" style="fill:#dac547;stroke:#bdaa3d"/><text dy=".35em" x="20" fill="#777" font-weight="700">21K (Omicron, BA.1)</text></g><g class="node" transform="translate(810 315.714)"><circle class="node" r="15" style="fill:#e9bb43;stroke:#caa23a"/><text dy=".35em" x="-20" text-anchor="end" fill="#777" font-weight="700">21L (Omicron, ~BA.2)</text></g><g class="node" transform="translate(990 242.857)"><circle class="node" r="15" style="fill:#f79339;stroke:#d68031"/><text dy=".35em" x="20" fill="#777" font-weight="700">22A (Omicron, BA.4)</text></g><g class="node" transform="translate(990 291.429)"><circle class="node" r="15" style="fill:#f67634;stroke:#d5662d"/><text dy=".35em" x="20" fill="#777" font-weight="700">22B (Omicron, BA.5)</text></g><g class="node" transform="translate(990 340)"><circle class="node" r="15" style="fill:#f2552d;stroke:#d24a27"/><text dy=".35em" x="20" fill="#777" font-weight="700">22C (Omicron, BA.2.12.1)</text></g><g class="node" transform="translate(990 388.571)"><circle class="node" r="15" style="fill:#ec3227;stroke:#cd2c22"/><text dy=".35em" x="20" fill="#777" font-weight="700">22D (Omicron, BA.2.75)</text></g></svg>