<svg xmlns="http://www.w3.org/2000/svg" class="d3-component" style="font-family:sans-serif;font-size:1.15rem" viewBox="0 0 1550 950"><path fill="none" stroke="#ccc" stroke-width="3" d="M300 593.75c-90 0-90 23.75-180 23.75M300 641.25c-90 0-90-23.75-180-23.75M480 285c-90 0-90 308.75-180 308.75"/><path fill="none" stroke="#ccc" stroke-width="3" d="M480 522.5c-90 0-90 71.25-180 71.25M480 712.5c-90 0-90-118.75-180-118.75"/><path fill="none" stroke="#ccc" stroke-width="3" d="M480 760c-90 0-90-166.25-180-166.25"/><path fill="none" stroke="#ccc" stroke-width="3" d="M480 807.5c-90 0-90-213.75-180-213.75"/><path fill="none" stroke="#ccc" stroke-width="3" d="M480 855c-90 0-90-261.25-180-261.25"/><path fill="none" stroke="#ccc" stroke-width="3" d="M480 902.5c-90 0-90-308.75-180-308.75M660 166.25c-90 0-90 118.75-180 118.75"/><path fill="none" stroke="#ccc" stroke-width="3" d="M660 213.75c-90 0-90 71.25-180 71.25"/><path fill="none" stroke="#ccc" stroke-width="3" d="M660 261.25c-90 0-90 23.75-180 23.75M660 308.75c-90 0-90-23.75-180-23.75"/><path fill="none" stroke="#ccc" stroke-width="3" d="M660 356.25c-90 0-90-71.25-180-71.25"/><path fill="none" stroke="#ccc" stroke-width="3" d="M660 403.75c-90 0-90-118.75-180-118.75M660 498.75c-90 0-90 23.75-180 23.75M660 546.25c-90 0-90-23.75-180-23.75M660 641.25c-90 0-90 71.25-180 71.25"/><path fill="none" stroke="#ccc" stroke-width="3" d="M660 688.75c-90 0-90 23.75-180 23.75M660 736.25c-90 0-90-23.75-180-23.75"/><path fill="none" stroke="#ccc" stroke-width="3" d="M660 783.75c-90 0-90-71.25-180-71.25M840 142.5c-90 0-90 23.75-180 23.75M840 190c-90 0-90-23.75-180-23.75M840 403.75H660M1020 47.5c-90 0-90 95-180 95"/><path fill="none" stroke="#ccc" stroke-width="3" d="M1020 95c-90 0-90 47.5-180 47.5M1020 142.5H840M1020 190c-90 0-90-47.5-180-47.5"/><path fill="none" stroke="#ccc" stroke-width="3" d="M1020 237.5c-90 0-90-95-180-95M1200 95h-180"/><g class="node" transform="translate(120 617.5)"><circle r="15" class="node" style="fill:#d7d7d7;stroke:#bababa"/><text x="-20" fill="#777" dy=".35em" font-weight="700" text-anchor="end">19A (B)</text></g><g class="node" transform="translate(300 593.75)"><circle r="15" class="node" style="fill:#c6c6c6;stroke:#ababab"/><text x="-20" fill="#777" dy=".35em" font-weight="700" text-anchor="end">20A (B.1)</text></g><g class="node" transform="translate(300 641.25)"><circle r="15" class="node" style="fill:#cecece;stroke:#b3b3b3"/><text x="20" fill="#777" dy=".35em" font-weight="700">19B (A)</text></g><g class="node" transform="translate(480 285)"><circle r="15" class="node" style="fill:#bdbdbd;stroke:#a4a4a4"/><text x="-20" fill="#777" dy=".35em" font-weight="700" text-anchor="end">20B (B.1.1)</text></g><g class="node" transform="translate(480 522.5)"><circle r="15" class="node" style="fill:#445cdd;stroke:#3b50c0"/><text x="-20" fill="#777" dy=".35em" font-weight="700" text-anchor="end">21A (Delta, B.1.617.2)</text></g><g class="node" transform="translate(480 712.5)"><circle r="15" class="node" style="fill:#b4b4b4;stroke:#9c9c9c"/><text x="-20" fill="#777" dy=".35em" font-weight="700" text-anchor="end">20C</text></g><g class="node" transform="translate(480 760)"><circle r="15" class="node" style="fill:#afcc5d;stroke:#98b151"/><text x="20" fill="#777" dy=".35em" font-weight="700">21H (Mu, B.1.621)</text></g><g class="node" transform="translate(480 807.5)"><circle r="15" class="node" style="fill:#6bb9a4;stroke:#5da08e"/><text x="20" fill="#777" dy=".35em" font-weight="700">21D (Eta, B.1.525)</text></g><g class="node" transform="translate(480 855)"><circle r="15" class="node" style="fill:#54a0cb;stroke:#498bb0"/><text x="20" fill="#777" dy=".35em" font-weight="700">21B (Kappa, B.1.617.1)</text></g><g class="node" transform="translate(480 902.5)"><circle r="15" class="node" style="fill:#a3a3a3;stroke:#8e8e8e"/><text x="20" fill="#777" dy=".35em" font-weight="700">20E (EU1, B.1.177)</text></g><g class="node" transform="translate(660 166.25)"><circle r="15" class="node" style="fill:#e3bf44;stroke:#c4a63b"/><text x="-20" fill="#777" dy=".35em" font-weight="700" text-anchor="end">21M (Omicron, B.1.1.529)</text></g><g class="node" transform="translate(660 213.75)"><circle r="15" class="node" style="fill:#79c190;stroke:#69a87d"/><text x="20" fill="#777" dy=".35em" font-weight="700">21E (Theta, P.3)</text></g><g class="node" transform="translate(660 261.25)"><circle r="15" class="node" style="fill:#4542d4;stroke:#3c39b7"/><text x="20" fill="#777" dy=".35em" font-weight="700">20J (Gamma, V3, P.1)</text></g><g class="node" transform="translate(660 308.75)"><circle r="15" class="node" style="fill:#4f2bc0;stroke:#4525a7"/><text x="20" fill="#777" dy=".35em" font-weight="700">20I (Alpha, V1, B.1.1.7)</text></g><g class="node" transform="translate(660 356.25)"><circle r="15" class="node" style="fill:#9b9b9b;stroke:#868686"/><text x="20" fill="#777" dy=".35em" font-weight="700">20F (D.2)</text></g><g class="node" transform="translate(660 403.75)"><circle r="15" class="node" style="fill:#acacac;stroke:#959595"/><text x="-20" fill="#777" dy=".35em" font-weight="700" text-anchor="end">20D (B.1.1.1)</text></g><g class="node" transform="translate(660 498.75)"><circle r="15" class="node" style="fill:#4675dd;stroke:#3d65c0"/><text x="20" fill="#777" dy=".35em" font-weight="700">21I (Delta)</text></g><g class="node" transform="translate(660 546.25)"><circle r="15" class="node" style="fill:#4b8dd7;stroke:#417aba"/><text x="20" fill="#777" dy=".35em" font-weight="700">21J (Delta)</text></g><g class="node" transform="translate(660 641.25)"><circle r="15" class="node" style="fill:#89c77c;stroke:#77ac6b"/><text x="20" fill="#777" dy=".35em" font-weight="700">21F (Iota, B.1.526)</text></g><g class="node" transform="translate(660 688.75)"><circle r="15" class="node" style="fill:#5faeb9;stroke:#5297a0"/><text x="20" fill="#777" dy=".35em" font-weight="700">21C (Epsilon, B.1.427/429)</text></g><g class="node" transform="translate(660 736.25)"><circle r="15" class="node" style="fill:#651fa9;stroke:#581b92"/><text x="20" fill="#777" dy=".35em" font-weight="700">20H (Beta, V2, B.1.351)</text></g><g class="node" transform="translate(660 783.75)"><circle r="15" class="node" style="fill:#929292;stroke:#7f7f7f"/><text x="20" fill="#777" dy=".35em" font-weight="700">20G (B.1.2)</text></g><g class="node" transform="translate(840 142.5)"><circle r="15" class="node" style="fill:#d4c74a;stroke:#b7ac40"/><text x="-20" fill="#777" dy=".35em" font-weight="700" text-anchor="end">21L (Omicron, ~BA.2)</text></g><g class="node" transform="translate(840 190)"><circle r="15" class="node" style="fill:#c2cb52;stroke:#a9b047"/><text x="20" fill="#777" dy=".35em" font-weight="700">21K (Omicron, BA.1)</text></g><g class="node" transform="translate(840 403.75)"><circle r="15" class="node" style="fill:#9cca6b;stroke:#87af5d"/><text x="20" fill="#777" dy=".35em" font-weight="700">21G (Lambda, C.37)</text></g><g class="node" transform="translate(1020 47.5)"><circle r="15" class="node" style="fill:#eeb23f;stroke:#cf9b37"/><text x="20" fill="#777" dy=".35em" font-weight="700">22A (Omicron, BA.4)</text></g><g class="node" transform="translate(1020 95)"><circle r="15" class="node" style="fill:#f6a13c;stroke:#d58c34"/><text x="-20" fill="#777" dy=".35em" font-weight="700" text-anchor="end">22B (Omicron, BA.5)</text></g><g class="node" transform="translate(1020 142.5)"><circle r="15" class="node" style="fill:#f78837;stroke:#d6762f"/><text x="20" fill="#777" dy=".35em" font-weight="700">22C (Omicron, BA.2.12.1)</text></g><g class="node" transform="translate(1020 190)"><circle r="15" class="node" style="fill:#f56b31;stroke:#d45d2b"/><text x="20" fill="#777" dy=".35em" font-weight="700">22D (Omicron, BA.2.75)</text></g><g class="node" transform="translate(1020 237.5)"><circle r="15" class="node" style="fill:#eb2b26;stroke:#cc2521"/><text x="20" fill="#777" dy=".35em" font-weight="700">22F (Omicron, XBB)</text></g><g class="node" transform="translate(1200 95)"><circle r="15" class="node" style="fill:#ef4b2b;stroke:#d04125"/><text x="20" fill="#777" dy=".35em" font-weight="700">22E (Omicron, BQ.1)</text></g></svg>