<svg xmlns="http://www.w3.org/2000/svg" viewBox="0 0 36.93 36.93"><defs><style>.cls-1{fill:#88c540}.cls-2{fill:#1c7b7e}.cls-3{fill:#35b5b9}.cls-4{fill:#1c3a62}</style></defs><g id="Layer_2" data-name="Layer 2"><g id="svg3705"><g id="layer1"><g id="g230"><g id="g232"><g id="g238"><path id="path240" class="cls-1" d="M0 18.46a18.43 18.43 0 001.16 6.44l3-8.16a2.19 2.19 0 00-3.7-2.2A18.49 18.49 0 000 18.46"/></g><g id="g242"><path id="path244" class="cls-2" d="M3.18 12.92A2.2 2.2 0 006 11.61l3.33-9.19a18.54 18.54 0 00-7.57 8.18 2.2 2.2 0 001.42 2.31"/></g><g id="g246"><path id="path248" class="cls-3" d="M29.27 26.94A2.19 2.19 0 1128 24.13a2.19 2.19 0 011.31 2.81"/></g><g id="g250"><path id="path252" class="cls-1" d="M26.53 34.45a2.19 2.19 0 11-4.12-1.5l.87-2.38a2.19 2.19 0 114.12 1.5z"/></g><g id="g254"><path id="path256" class="cls-1" d="M31.13 21.81a2.19 2.19 0 11-4.13-1.5l3.8-10.4a2.19 2.19 0 114.12 1.5z"/></g><g id="g258"><path id="path260" class="cls-2" d="M36.93 18.46a18.43 18.43 0 00-1.14-6.4l-2.54 7a2.19 2.19 0 003.43 2.45 18.46 18.46 0 00.25-3"/></g><g id="g262"><path id="path264" class="cls-3" d="M35.57 25.4a2.19 2.19 0 00-4.2-1.23l-3.75 10.32a18.52 18.52 0 008-9.09"/></g><g id="g266"><path id="path268" class="cls-1" d="M22.83 12.91a2.19 2.19 0 11-4.12-1.5l3.29-9a2.19 2.19 0 114.12 1.5z"/></g><g id="g270"><path id="path272" class="cls-1" d="M17.4 21.42a2.19 2.19 0 00-2.81 1.31l-4.45 12.21a18.34 18.34 0 004.12 1.5l4.45-12.21a2.19 2.19 0 00-1.31-2.81"/></g><g id="g274"><path id="path276" class="cls-1" d="M11.19 6.77A2.2 2.2 0 0014 5.46L15.92.18a18.36 18.36 0 00-5.22 1.53L9.88 4a2.2 2.2 0 001.31 2.81"/></g><g id="g278"><path id="path280" class="cls-3" d="M12.14 10.59a2.19 2.19 0 11-1.31-2.81 2.19 2.19 0 011.31 2.81"/></g><g id="g282"><path id="path284" class="cls-3" d="M6.29 20.23A2.2 2.2 0 015 17.43L2 25.6a2.19 2.19 0 004.12 1.5l3-8.18a2.2 2.2 0 01-2.81 1.31"/></g><g id="g286"><path id="path288" class="cls-1" d="M9.1 18.92a2.19 2.19 0 01-4.1-1.5l1.17-3.21a2.19 2.19 0 014.12 1.5z"/></g><g id="g290"><path id="path292" class="cls-2" d="M30.66 7.24l.72-2a18.48 18.48 0 00-3.65-2.78l-1.18 3.28a2.19 2.19 0 004.12 1.5"/></g><g id="g294"><path id="path296" class="cls-3" d="M18.46 36.93c.48 0 .95 0 1.42-.06l.46-1.28a2.19 2.19 0 10-4.12-1.5l-.93 2.56a18.52 18.52 0 003.17.28"/></g><g id="g298"><path id="path300" class="cls-4" d="M22.22 30.44a2.19 2.19 0 01-4.12-1.5l6.58-18.08a2.19 2.19 0 014.12 1.5z"/></g><g id="g302"><path id="path304" class="cls-3" d="M17.08.06a2.2 2.2 0 001.37 2.62 2.2 2.2 0 002.81-1.31l.39-1.09A18.5 18.5 0 0018.46 0c-.47 0-.93 0-1.38.06"/></g><g id="g306"><path id="path308" class="cls-2" d="M9.22 34.44l2.27-6.23a2.19 2.19 0 01-4.12-1.51l-1.81 5a18.54 18.54 0 003.66 2.78"/></g><g id="g310"><path id="path312" class="cls-1" d="M11.49 28.2a2.19 2.19 0 11-1.31-2.81 2.19 2.19 0 011.31 2.81"/></g><g id="g314"><path id="path316" class="cls-4" d="M19.48 15.25a2.65 2.65 0 00-1.32-.13c-.58.07-1.83 0-1.24-1.81l2.5-6.87a2.19 2.19 0 00-4.12-1.5L9.23 21.61a2.19 2.19 0 004.12 1.5l1.1-3c.75-1.8 1.73-1 2.12-.58a2.67 2.67 0 102.92-4.27"/></g></g></g></g></g></g></svg>