<svg xmlns="http://www.w3.org/2000/svg" xmlns:xlink="http://www.w3.org/1999/xlink" viewBox="0 0 199 152.9">
  <defs>
    <radialGradient id="radial-gradient" cx="580.9" cy="843" r="53.7" gradientTransform="matrix(-1 0 0 1 653 -791)" gradientUnits="userSpaceOnUse">
      <stop offset="0" stop-color="#f69679"/>
      <stop offset="1" stop-color="#ed1c24"/>
    </radialGradient>
    <radialGradient id="radial-gradient-2" cx="1744.9" cy="231" r="53.7" gradientTransform="matrix(1 0 0 -1 0 156)" xlink:href="#radial-gradient"/>
    <style>
      .cls-3{fill:url(#radial-gradient-2)}
    </style>
  </defs>
  <g id="Layer_2" data-name="Layer 2">
    <g id="Layer_1-2" data-name="Layer 1">
      <path d="M14.3 0A14.3 14.3 0 0 0 0 14.3v124.3a14.3 14.3 0 0 0 14.3 14.3h170.4a14.3 14.3 0 0 0 14.3-14.3V14.3A14.3 14.3 0 0 0 184.7 0H14.3Z" fill="#fff"/>
      <path d="M62.6 51.7a9.4 9.4 0 0 1 7.1-8.8l5.7-35.7H14.3a7.1 7.1 0 0 0-7.1 7.1v59.5ZM28 28.9h7.9V21H43v7.9h7.9V36H43v7.9h-7.1V36H28Z" fill="url(#radial-gradient)"/>
      <path class="cls-3" d="M164.4 113.7a4.2 4.2 0 0 0 2.4-2.1 5.2 5.2 0 0 0 .7-2.5 4 4 0 0 0-2.1-3.9 16.5 16.5 0 0 0-6.3-1h-6.3v10h7.1a16.4 16.4 0 0 0 4.5-.5Zm2.6 7.4c-1.4-.9-3.4-1.3-6.1-1.3h-8.1V131h8.4c5.3 0 7.9-1.9 7.9-5.7a4.5 4.5 0 0 0-2.1-4.2Z"/>
      <path class="cls-3" d="M184.7 7.2H83.3l-5.9 36.9a9.5 9.5 0 0 1 4.3 8v.5l44.9 23.2a9.4 9.4 0 0 1 5.9-2.1 9.6 9.6 0 1 1-9.6 9.6v-.6L78.1 59.5a9.5 9.5 0 0 1-6 2.1 9.6 9.6 0 0 1-6.7-2.7L7.1 82.2v56.4a7.1 7.1 0 0 0 7.1 7.1h170.4a7.1 7.1 0 0 0 7.1-7.1V14.3a7 7 0 0 0-6.9-7.1Zm-64.8 124.4a12 12 0 0 1-5.3 4.3 20.3 20.3 0 0 1-8.2 1.6 19 19 0 0 1-9.4-2.1 13 13 0 0 1-4.3-4.1 9.2 9.2 0 0 1-1.6-5 3.42 3.42 0 0 1 3.5-3.4 3.2 3.2 0 0 1 2.1.8 5.8 5.8 0 0 1 1.5 2.3 18 18 0 0 0 1.6 3.1 6.8 6.8 0 0 0 2.4 2 9.3 9.3 0 0 0 4.1.8 8.9 8.9 0 0 0 5.6-1.6 5 5 0 0 0 2.2-4 4.1 4.1 0 0 0-1.2-3.1 7.5 7.5 0 0 0-3-1.8 41.3 41.3 0 0 0-4.9-1.3 29.2 29.2 0 0 1-6.9-2.3 11 11 0 0 1-4.4-3.5 9.3 9.3 0 0 1-1.6-5.6 9.8 9.8 0 0 1 1.7-5.6 11.5 11.5 0 0 1 5-3.8 20.4 20.4 0 0 1 7.7-1.3 18.3 18.3 0 0 1 6.1.9 14.5 14.5 0 0 1 4.3 2.3 10 10 0 0 1 2.5 3.1 7.5 7.5 0 0 1 .8 3.1 3.5 3.5 0 0 1-1 2.5 3.4 3.4 0 0 1-2.5 1.1 2.4 2.4 0 0 1-2-.7 7 7 0 0 1-1.5-2.2 9.1 9.1 0 0 0-2.5-3.4 7.6 7.6 0 0 0-4.7-1.2 8.3 8.3 0 0 0-4.9 1.3 3.8 3.8 0 0 0-1.8 3.2 3.4 3.4 0 0 0 .6 2 4.7 4.7 0 0 0 1.7 1.4 10.2 10.2 0 0 0 2.2.9l3.7 1a60.7 60.7 0 0 1 5.9 1.7 18.9 18.9 0 0 1 4.5 2.2 10.2 10.2 0 0 1 2.9 3.3 10.4 10.4 0 0 1 1 4.9 12.5 12.5 0 0 1-1.9 6.2Zm16.5 1.1a5.3 5.3 0 0 1-1.1 3.6 3.7 3.7 0 0 1-2.9 1.2 3.6 3.6 0 0 1-2.8-1.2 5.2 5.2 0 0 1-1.1-3.5V102a4.9 4.9 0 0 1 1.1-3.5 3.5 3.5 0 0 1 2.8-1.2 3.9 3.9 0 0 1 2.9 1.2 5.3 5.3 0 0 1 1.1 3.6Zm38.9-1a9.8 9.8 0 0 1-4.5 3.8 15.6 15.6 0 0 1-4 1 41 41 0 0 1-5.3.3h-11.8a5 5 0 0 1-3.6-1.1 5.3 5.3 0 0 1-1.1-3.6v-28.9a5.5 5.5 0 0 1 1.1-3.7 5 5 0 0 1 3.6-1.1h12.5a34.3 34.3 0 0 1 4.8.3 10.3 10.3 0 0 1 3.6 1.3 8 8 0 0 1 2.4 2.1 9 9 0 0 1 2.1 6c0 3.9-1.9 6.7-5.8 8.5 5.1 1.6 7.6 4.7 7.6 9.4a9.7 9.7 0 0 1-1.6 5.7Z"/>
    </g>
  </g>
</svg>
